<svg width="2700" height="2700" viewBox="0 0 2700 2700" fill="none" xmlns="http://www.w3.org/2000/svg">
<rect width="2700" height="2700" transform="matrix(0 1 -1 0 2700 0)" fill="black"/>
<circle cx="1927.95" cy="1809.95" r="92.9471" fill="#A66BFE"/>
<path fill-rule="evenodd" clip-rule="evenodd" d="M1834.44 1015.79V1425.69C1834.44 1449.31 1828.64 1567.63 1765.9 1680.65C1702.45 1794.96 1581.22 1902.71 1354 1902.71C1126.78 1902.71 1003.83 1794.46 938.598 1680.04C874.073 1566.87 866.37 1448.6 866.368 1425.69C866.363 1314.63 866.362 1184.76 866.364 1082.65C866.364 1058.36 866.365 1035.63 866.366 1015.11L865 866.488C865 828.663 895.663 798 933.488 798H1066.35C1104.18 798 1134.84 828.663 1134.84 866.488L1133.81 1015.11V1425.71C1133.81 1425.77 1133.82 1425.89 1133.82 1426.05C1133.82 1426.37 1133.84 1426.9 1133.86 1427.61C1133.91 1429.04 1134.02 1431.21 1134.23 1434.03C1134.66 1439.66 1135.52 1447.82 1137.26 1457.66C1140.75 1477.41 1147.71 1503.52 1161.47 1529.45C1175.19 1555.29 1195.56 1580.78 1225.95 1599.87C1256.27 1618.91 1297.53 1632.18 1354 1632.18C1408.04 1632.18 1447.47 1618.98 1476.46 1600.03C1505.55 1581.02 1525.11 1555.58 1538.32 1529.69C1551.56 1503.72 1558.26 1477.57 1561.62 1457.77C1563.3 1447.91 1564.13 1439.72 1564.54 1434.07C1564.75 1431.25 1564.85 1429.07 1564.9 1427.64C1564.92 1426.92 1564.93 1426.39 1564.94 1426.06C1564.94 1425.9 1564.94 1425.78 1564.94 1425.72V906.211C1564.94 906.193 1564.94 906.175 1564.95 906.158V867.173C1564.95 829.348 1595.61 798.685 1633.43 798.685H1766.3C1804.12 798.685 1834.79 829.348 1834.79 867.173L1834.44 1015.79ZM1597.82 1015.79L1597.81 1426.6C1597.81 1426.65 1597.81 1426.52 1597.81 1426.6C1597.81 1426.75 1597.81 1426.34 1597.81 1426.6C1597.8 1427.11 1597.78 1427.84 1597.75 1428.75C1597.69 1430.58 1597.57 1433.19 1597.33 1436.46C1596.85 1443.01 1595.91 1452.24 1594.03 1463.28C1590.29 1485.28 1582.78 1514.85 1567.6 1544.62C1552.38 1574.46 1529.31 1604.76 1494.45 1627.54C1459.5 1650.39 1413.66 1665.06 1354 1665.06C1292.16 1665.06 1244.68 1650.46 1208.46 1627.71C1172.3 1604.99 1148.3 1574.75 1132.44 1544.86C1116.62 1515.06 1108.79 1485.43 1104.89 1463.39C1102.93 1452.33 1101.95 1443.07 1101.45 1436.51C1101.2 1433.23 1101.07 1430.61 1101.01 1428.77C1100.97 1427.86 1100.96 1427.13 1100.95 1426.61C1100.94 1426.35 1100.94 1426.14 1100.94 1425.99C1100.94 1425.91 1100.94 1425.74 1100.94 1425.69C1100.94 1425.69 1100.94 1425.99 1100.94 1425.99L1100.94 1425.69V1015.11H899.24C899.239 1035.63 899.238 1058.36 899.238 1082.65C899.236 1184.76 899.237 1314.63 899.243 1425.69C899.244 1445.25 906.436 1557.26 967.157 1663.76C1027.17 1769.03 1139.82 1869.83 1354 1869.83C1568.19 1869.83 1678.96 1769.55 1737.16 1664.7C1796.08 1558.56 1801.57 1446.58 1801.57 1425.69V1015.79H1597.82Z" fill="white"/>
</svg>
